<svg width="24" height="24" viewBox="0 0 24 24" fill="none" xmlns="http://www.w3.org/2000/svg">
<path fill-rule="evenodd" clip-rule="evenodd" d="M5.61522 12.5629L9.70083 16.4082C10.0053 16.6942 10.0053 17.1586 9.70083 17.4456C9.39642 17.7317 8.9024 17.7317 8.59852 17.4456L3.22154 12.385C3.06025 12.2322 2.99082 12.0291 3.00097 11.8295C2.99082 11.6295 3.06025 11.4269 3.22154 11.2736L8.59852 6.21391C8.9024 5.9274 9.39642 5.9274 9.70083 6.21391C10.0053 6.49992 10.0053 6.96487 9.70083 7.25138L5.61522 11.0962L20.2208 11.0962C20.6518 11.0962 21 11.4239 21 11.8295C21 12.2342 20.6518 12.5629 20.2208 12.5629L5.61522 12.5629Z" fill="#525557"/>
</svg>
