<svg width="248" height="26" viewBox="0 0 248 26" fill="none" xmlns="http://www.w3.org/2000/svg">
<path d="M13 17.8581C13 18.3882 12.7907 18.8122 12.4767 19.2362L7.87165 24.6422C7.66233 24.9602 7.24369 25.0662 6.82505 24.9602C6.40641 24.8542 6.19709 24.6422 5.98777 24.2182L5.77845 23.6882C5.56913 23.1582 5.67379 22.5222 5.88311 22.0982L7.76699 18.6002H2.01069C1.69671 18.6002 1.38273 18.3882 1.17341 18.1761C0.964086 17.9641 0.964086 17.5401 1.06875 17.2221L4.10389 9.37802C4.41787 8.53001 5.15049 8 6.09243 8H11.9534C12.5814 8 13 8.42401 13 9.06002V17.8581Z" fill="#8A8A8A" stroke="#8A8A8A" stroke-linejoin="round"/>
<path d="M15 17.9C15 18.56 15.4 19 16 19H18V8H16C15.4 8 15 8.44 15 9.1V17.9Z" fill="#8A8A8A" stroke="#8A8A8A" stroke-linejoin="round"/>
</svg>
